<mxfile host="app.diagrams.net" agent="Mozilla/5.0 (Macintosh; Intel Mac OS X 10_15_7) AppleWebKit/537.36 (KHTML, like Gecko) Chrome/128.0.0.0 Safari/537.36" version="24.7.14">
  <diagram name="Страница — 1" id="LPJ16F4Odl_lKUOuBzS_">
    <mxGraphModel dx="954" dy="530" grid="1" gridSize="10" guides="1" tooltips="1" connect="1" arrows="1" fold="1" page="1" pageScale="1" pageWidth="827" pageHeight="1169" math="0" shadow="0">
      <root>
        <mxCell id="0" />
        <mxCell id="1" parent="0" />
        <mxCell id="NSudbpyUwgiWTNqCxdTF-1" value="Источники данных" style="rounded=0;whiteSpace=wrap;html=1;verticalAlign=top;" parent="1" vertex="1">
          <mxGeometry x="30" y="80" width="150" height="420" as="geometry" />
        </mxCell>
        <mxCell id="NSudbpyUwgiWTNqCxdTF-2" value="1СБухгалетия" style="shape=cylinder3;whiteSpace=wrap;html=1;boundedLbl=1;backgroundOutline=1;size=15;" parent="1" vertex="1">
          <mxGeometry x="75" y="120" width="60" height="80" as="geometry" />
        </mxCell>
        <mxCell id="NSudbpyUwgiWTNqCxdTF-3" value="БД Поставщиков" style="shape=cylinder3;whiteSpace=wrap;html=1;boundedLbl=1;backgroundOutline=1;size=15;" parent="1" vertex="1">
          <mxGeometry x="80" y="210" width="60" height="80" as="geometry" />
        </mxCell>
        <mxCell id="NSudbpyUwgiWTNqCxdTF-4" value="Склад" style="shape=cylinder3;whiteSpace=wrap;html=1;boundedLbl=1;backgroundOutline=1;size=15;" parent="1" vertex="1">
          <mxGeometry x="75" y="300" width="60" height="80" as="geometry" />
        </mxCell>
        <mxCell id="NSudbpyUwgiWTNqCxdTF-5" value="Аналитика с платформы" style="shape=cylinder3;whiteSpace=wrap;html=1;boundedLbl=1;backgroundOutline=1;size=15;" parent="1" vertex="1">
          <mxGeometry x="75" y="390" width="60" height="80" as="geometry" />
        </mxCell>
        <mxCell id="R_MVeHPW9k1XH_oFSXGs-1" value="" style="rounded=0;whiteSpace=wrap;html=1;" vertex="1" parent="1">
          <mxGeometry x="250" y="190" width="120" height="60" as="geometry" />
        </mxCell>
      </root>
    </mxGraphModel>
  </diagram>
</mxfile>
